REM DIRINDEX 1\2,1\3,1\4,1\5
REM DIRNAME "folder01","folder02","folder03","folder04","folder05"
TITLE ""
FILE "1Q_t_0139-0148.mp3" MP3
  TRACK 01 AUDIO
    TITLE "3:cjc172_1330"
    INDEX 01 00:00:00
  TRACK 02 AUDIO
    TITLE "0:"
    INDEX 01 00:01:27
  TRACK 03 AUDIO
    TITLE "4:cjc172_1331"
    INDEX 01 00:01:43
  TRACK 04 AUDIO
    TITLE "0:"
    INDEX 01 00:02:62
  TRACK 05 AUDIO
    TITLE "5:cjc172_1332"
    INDEX 01 00:03:05
  TRACK 06 AUDIO
    TITLE "0:"
    INDEX 01 00:10:26
  TRACK 07 AUDIO
    TITLE "3:cjc172_1333"
    INDEX 01 00:11:04
  TRACK 08 AUDIO
    TITLE "0:"
    INDEX 01 00:12:10
  TRACK 09 AUDIO
    TITLE "4:cjc172_1334"
    INDEX 01 00:12:27
  TRACK 10 AUDIO
    TITLE "0:"
    INDEX 01 00:14:30
  TRACK 11 AUDIO
    TITLE "5:cjc172_1335"
    INDEX 01 00:14:44
  TRACK 12 AUDIO
    TITLE "0:"
    INDEX 01 00:21:26
  TRACK 13 AUDIO
    TITLE "3:cjc172_1336"
    INDEX 01 00:22:04
  TRACK 14 AUDIO
    TITLE "0:"
    INDEX 01 00:23:25
  TRACK 15 AUDIO
    TITLE "4:cjc172_1337"
    INDEX 01 00:23:41
  TRACK 16 AUDIO
    TITLE "0:"
    INDEX 01 00:25:51
  TRACK 17 AUDIO
    TITLE "5:cjc172_1338"
    INDEX 01 00:25:65
  TRACK 18 AUDIO
    TITLE "0:"
    INDEX 01 00:30:72
  TRACK 19 AUDIO
    TITLE "3:cjc172_1339"
    INDEX 01 00:31:50
  TRACK 20 AUDIO
    TITLE "0:"
    INDEX 01 00:33:04
  TRACK 21 AUDIO
    TITLE "4:cjc172_1340"
    INDEX 01 00:33:22
  TRACK 22 AUDIO
    TITLE "0:"
    INDEX 01 00:34:44
  TRACK 23 AUDIO
    TITLE "5:cjc172_1341"
    INDEX 01 00:34:60
  TRACK 24 AUDIO
    TITLE "0:"
    INDEX 01 00:39:30
  TRACK 25 AUDIO
    TITLE "3:cjc172_1342"
    INDEX 01 00:40:10
  TRACK 26 AUDIO
    TITLE "0:"
    INDEX 01 00:41:17
  TRACK 27 AUDIO
    TITLE "4:cjc172_1343"
    INDEX 01 00:41:35
  TRACK 28 AUDIO
    TITLE "0:"
    INDEX 01 00:43:65
  TRACK 29 AUDIO
    TITLE "5:cjc172_1344"
    INDEX 01 00:44:08
  TRACK 30 AUDIO
    TITLE "0:"
    INDEX 01 00:49:17
  TRACK 31 AUDIO
    TITLE "3:cjc172_1345"
    INDEX 01 00:49:73
  TRACK 32 AUDIO
    TITLE "0:"
    INDEX 01 00:51:31
  TRACK 33 AUDIO
    TITLE "4:cjc172_1346"
    INDEX 01 00:51:47
  TRACK 34 AUDIO
    TITLE "0:"
    INDEX 01 00:53:48
  TRACK 35 AUDIO
    TITLE "5:cjc172_1347"
    INDEX 01 00:53:61
  TRACK 36 AUDIO
    TITLE "0:"
    INDEX 01 00:58:02
  TRACK 37 AUDIO
    TITLE "3:cjc172_1348"
    INDEX 01 00:58:53
  TRACK 38 AUDIO
    TITLE "0:"
    INDEX 01 00:59:62
  TRACK 39 AUDIO
    TITLE "4:cjc172_1349"
    INDEX 01 01:00:03
  TRACK 40 AUDIO
    TITLE "0:"
    INDEX 01 01:02:54
  TRACK 41 AUDIO
    TITLE "5:cjc172_1350"
    INDEX 01 01:02:68
  TRACK 42 AUDIO
    TITLE "0:"
    INDEX 01 01:08:49
  TRACK 43 AUDIO
    TITLE "3:cjc172_1351"
    INDEX 01 01:09:27
  TRACK 44 AUDIO
    TITLE "0:"
    INDEX 01 01:10:31
  TRACK 45 AUDIO
    TITLE "4:cjc172_1352"
    INDEX 01 01:10:46
  TRACK 46 AUDIO
    TITLE "0:"
    INDEX 01 01:11:52
  TRACK 47 AUDIO
    TITLE "5:cjc172_1353"
    INDEX 01 01:11:67
  TRACK 48 AUDIO
    TITLE "0:"
    INDEX 01 01:18:18
  TRACK 49 AUDIO
    TITLE "3:cjc172_1354"
    INDEX 01 01:18:71
  TRACK 50 AUDIO
    TITLE "0:"
    INDEX 01 01:20:17
  TRACK 51 AUDIO
    TITLE "4:cjc172_1355"
    INDEX 01 01:20:35
  TRACK 52 AUDIO
    TITLE "0:"
    INDEX 01 01:23:21
  TRACK 53 AUDIO
    TITLE "5:cjc172_1356"
    INDEX 01 01:23:37
  TRACK 54 AUDIO
    TITLE "0:"
    INDEX 01 01:30:39
  TRACK 55 AUDIO
    TITLE "3:cjc172_1357"
    INDEX 01 01:31:17
  TRACK 56 AUDIO
    TITLE "0:"
    INDEX 01 01:32:48
  TRACK 57 AUDIO
    TITLE "4:cjc172_1358"
    INDEX 01 01:32:63
  TRACK 58 AUDIO
    TITLE "0:"
    INDEX 01 01:33:75
  TRACK 59 AUDIO
    TITLE "5:cjc172_1359"
    INDEX 01 01:34:17
  TRACK 60 AUDIO
    TITLE "0:"
    INDEX 01 01:40:53
